<?xml version="1.0" encoding="utf-8" standalone="no"?>
<!DOCTYPE svg PUBLIC "-//W3C//DTD SVG 1.1//EN"
  "http://www.w3.org/Graphics/SVG/1.1/DTD/svg11.dtd">
<!-- Created with matplotlib (https://matplotlib.org/) -->
<svg height="685.44pt" version="1.1" viewBox="0 0 1382.4 685.44" width="1382.4pt" xmlns="http://www.w3.org/2000/svg" xmlns:xlink="http://www.w3.org/1999/xlink">
 <defs>
  <style type="text/css">
*{stroke-linecap:butt;stroke-linejoin:round;}
  </style>
 </defs>
 <g id="figure_1">
  <g id="patch_1">
   <path d="M 0 685.44 
L 1382.4 685.44 
L 1382.4 0 
L 0 0 
z
" style="fill:#ffffff;"/>
  </g>
  <g id="axes_1">
   <g id="patch_2">
    <path d="M 172.8 610.0416 
L 1244.16 610.0416 
L 1244.16 82.2528 
L 172.8 82.2528 
z
" style="fill:#ffffff;"/>
   </g>
   <g id="matplotlib.axis_1">
    <g id="xtick_1">
     <g id="line2d_1">
      <defs>
       <path d="M 0 0 
L 0 3.5 
" id="m7a05ccc38c" style="stroke:#000000;stroke-width:0.8;"/>
      </defs>
      <g>
       <use style="stroke:#000000;stroke-width:0.8;" x="185.156255" xlink:href="#m7a05ccc38c" y="610.0416"/>
      </g>
     </g>
     <g id="text_1">
      <!-- 8 -->
      <defs>
       <path d="M 31.78125 34.625 
Q 24.75 34.625 20.71875 30.859375 
Q 16.703125 27.09375 16.703125 20.515625 
Q 16.703125 13.921875 20.71875 10.15625 
Q 24.75 6.390625 31.78125 6.390625 
Q 38.8125 6.390625 42.859375 10.171875 
Q 46.921875 13.96875 46.921875 20.515625 
Q 46.921875 27.09375 42.890625 30.859375 
Q 38.875 34.625 31.78125 34.625 
z
M 21.921875 38.8125 
Q 15.578125 40.375 12.03125 44.71875 
Q 8.5 49.078125 8.5 55.328125 
Q 8.5 64.0625 14.71875 69.140625 
Q 20.953125 74.21875 31.78125 74.21875 
Q 42.671875 74.21875 48.875 69.140625 
Q 55.078125 64.0625 55.078125 55.328125 
Q 55.078125 49.078125 51.53125 44.71875 
Q 48 40.375 41.703125 38.8125 
Q 48.828125 37.15625 52.796875 32.3125 
Q 56.78125 27.484375 56.78125 20.515625 
Q 56.78125 9.90625 50.3125 4.234375 
Q 43.84375 -1.421875 31.78125 -1.421875 
Q 19.734375 -1.421875 13.25 4.234375 
Q 6.78125 9.90625 6.78125 20.515625 
Q 6.78125 27.484375 10.78125 32.3125 
Q 14.796875 37.15625 21.921875 38.8125 
z
M 18.3125 54.390625 
Q 18.3125 48.734375 21.84375 45.5625 
Q 25.390625 42.390625 31.78125 42.390625 
Q 38.140625 42.390625 41.71875 45.5625 
Q 45.3125 48.734375 45.3125 54.390625 
Q 45.3125 60.0625 41.71875 63.234375 
Q 38.140625 66.40625 31.78125 66.40625 
Q 25.390625 66.40625 21.84375 63.234375 
Q 18.3125 60.0625 18.3125 54.390625 
z
" id="DejaVuSans-56"/>
      </defs>
      <g transform="translate(181.975005 624.640037)scale(0.1 -0.1)">
       <use xlink:href="#DejaVuSans-56"/>
      </g>
     </g>
    </g>
    <g id="xtick_2">
     <g id="line2d_2">
      <g>
       <use style="stroke:#000000;stroke-width:0.8;" x="330.523962" xlink:href="#m7a05ccc38c" y="610.0416"/>
      </g>
     </g>
     <g id="text_2">
      <!-- 10 -->
      <defs>
       <path d="M 12.40625 8.296875 
L 28.515625 8.296875 
L 28.515625 63.921875 
L 10.984375 60.40625 
L 10.984375 69.390625 
L 28.421875 72.90625 
L 38.28125 72.90625 
L 38.28125 8.296875 
L 54.390625 8.296875 
L 54.390625 0 
L 12.40625 0 
z
" id="DejaVuSans-49"/>
       <path d="M 31.78125 66.40625 
Q 24.171875 66.40625 20.328125 58.90625 
Q 16.5 51.421875 16.5 36.375 
Q 16.5 21.390625 20.328125 13.890625 
Q 24.171875 6.390625 31.78125 6.390625 
Q 39.453125 6.390625 43.28125 13.890625 
Q 47.125 21.390625 47.125 36.375 
Q 47.125 51.421875 43.28125 58.90625 
Q 39.453125 66.40625 31.78125 66.40625 
z
M 31.78125 74.21875 
Q 44.046875 74.21875 50.515625 64.515625 
Q 56.984375 54.828125 56.984375 36.375 
Q 56.984375 17.96875 50.515625 8.265625 
Q 44.046875 -1.421875 31.78125 -1.421875 
Q 19.53125 -1.421875 13.0625 8.265625 
Q 6.59375 17.96875 6.59375 36.375 
Q 6.59375 54.828125 13.0625 64.515625 
Q 19.53125 74.21875 31.78125 74.21875 
z
" id="DejaVuSans-48"/>
      </defs>
      <g transform="translate(324.161462 624.640037)scale(0.1 -0.1)">
       <use xlink:href="#DejaVuSans-49"/>
       <use x="63.623047" xlink:href="#DejaVuSans-48"/>
      </g>
     </g>
    </g>
    <g id="xtick_3">
     <g id="line2d_3">
      <g>
       <use style="stroke:#000000;stroke-width:0.8;" x="475.891669" xlink:href="#m7a05ccc38c" y="610.0416"/>
      </g>
     </g>
     <g id="text_3">
      <!-- 12 -->
      <defs>
       <path d="M 19.1875 8.296875 
L 53.609375 8.296875 
L 53.609375 0 
L 7.328125 0 
L 7.328125 8.296875 
Q 12.9375 14.109375 22.625 23.890625 
Q 32.328125 33.6875 34.8125 36.53125 
Q 39.546875 41.84375 41.421875 45.53125 
Q 43.3125 49.21875 43.3125 52.78125 
Q 43.3125 58.59375 39.234375 62.25 
Q 35.15625 65.921875 28.609375 65.921875 
Q 23.96875 65.921875 18.8125 64.3125 
Q 13.671875 62.703125 7.8125 59.421875 
L 7.8125 69.390625 
Q 13.765625 71.78125 18.9375 73 
Q 24.125 74.21875 28.421875 74.21875 
Q 39.75 74.21875 46.484375 68.546875 
Q 53.21875 62.890625 53.21875 53.421875 
Q 53.21875 48.921875 51.53125 44.890625 
Q 49.859375 40.875 45.40625 35.40625 
Q 44.1875 33.984375 37.640625 27.21875 
Q 31.109375 20.453125 19.1875 8.296875 
z
" id="DejaVuSans-50"/>
      </defs>
      <g transform="translate(469.529169 624.640037)scale(0.1 -0.1)">
       <use xlink:href="#DejaVuSans-49"/>
       <use x="63.623047" xlink:href="#DejaVuSans-50"/>
      </g>
     </g>
    </g>
    <g id="xtick_4">
     <g id="line2d_4">
      <g>
       <use style="stroke:#000000;stroke-width:0.8;" x="621.259376" xlink:href="#m7a05ccc38c" y="610.0416"/>
      </g>
     </g>
     <g id="text_4">
      <!-- 14 -->
      <defs>
       <path d="M 37.796875 64.3125 
L 12.890625 25.390625 
L 37.796875 25.390625 
z
M 35.203125 72.90625 
L 47.609375 72.90625 
L 47.609375 25.390625 
L 58.015625 25.390625 
L 58.015625 17.1875 
L 47.609375 17.1875 
L 47.609375 0 
L 37.796875 0 
L 37.796875 17.1875 
L 4.890625 17.1875 
L 4.890625 26.703125 
z
" id="DejaVuSans-52"/>
      </defs>
      <g transform="translate(614.896876 624.640037)scale(0.1 -0.1)">
       <use xlink:href="#DejaVuSans-49"/>
       <use x="63.623047" xlink:href="#DejaVuSans-52"/>
      </g>
     </g>
    </g>
    <g id="xtick_5">
     <g id="line2d_5">
      <g>
       <use style="stroke:#000000;stroke-width:0.8;" x="766.627083" xlink:href="#m7a05ccc38c" y="610.0416"/>
      </g>
     </g>
     <g id="text_5">
      <!-- 16 -->
      <defs>
       <path d="M 33.015625 40.375 
Q 26.375 40.375 22.484375 35.828125 
Q 18.609375 31.296875 18.609375 23.390625 
Q 18.609375 15.53125 22.484375 10.953125 
Q 26.375 6.390625 33.015625 6.390625 
Q 39.65625 6.390625 43.53125 10.953125 
Q 47.40625 15.53125 47.40625 23.390625 
Q 47.40625 31.296875 43.53125 35.828125 
Q 39.65625 40.375 33.015625 40.375 
z
M 52.59375 71.296875 
L 52.59375 62.3125 
Q 48.875 64.0625 45.09375 64.984375 
Q 41.3125 65.921875 37.59375 65.921875 
Q 27.828125 65.921875 22.671875 59.328125 
Q 17.53125 52.734375 16.796875 39.40625 
Q 19.671875 43.65625 24.015625 45.921875 
Q 28.375 48.1875 33.59375 48.1875 
Q 44.578125 48.1875 50.953125 41.515625 
Q 57.328125 34.859375 57.328125 23.390625 
Q 57.328125 12.15625 50.6875 5.359375 
Q 44.046875 -1.421875 33.015625 -1.421875 
Q 20.359375 -1.421875 13.671875 8.265625 
Q 6.984375 17.96875 6.984375 36.375 
Q 6.984375 53.65625 15.1875 63.9375 
Q 23.390625 74.21875 37.203125 74.21875 
Q 40.921875 74.21875 44.703125 73.484375 
Q 48.484375 72.75 52.59375 71.296875 
z
" id="DejaVuSans-54"/>
      </defs>
      <g transform="translate(760.264583 624.640037)scale(0.1 -0.1)">
       <use xlink:href="#DejaVuSans-49"/>
       <use x="63.623047" xlink:href="#DejaVuSans-54"/>
      </g>
     </g>
    </g>
    <g id="xtick_6">
     <g id="line2d_6">
      <g>
       <use style="stroke:#000000;stroke-width:0.8;" x="911.99479" xlink:href="#m7a05ccc38c" y="610.0416"/>
      </g>
     </g>
     <g id="text_6">
      <!-- 18 -->
      <g transform="translate(905.63229 624.640037)scale(0.1 -0.1)">
       <use xlink:href="#DejaVuSans-49"/>
       <use x="63.623047" xlink:href="#DejaVuSans-56"/>
      </g>
     </g>
    </g>
    <g id="xtick_7">
     <g id="line2d_7">
      <g>
       <use style="stroke:#000000;stroke-width:0.8;" x="1057.362497" xlink:href="#m7a05ccc38c" y="610.0416"/>
      </g>
     </g>
     <g id="text_7">
      <!-- 20 -->
      <g transform="translate(1050.999997 624.640037)scale(0.1 -0.1)">
       <use xlink:href="#DejaVuSans-50"/>
       <use x="63.623047" xlink:href="#DejaVuSans-48"/>
      </g>
     </g>
    </g>
    <g id="xtick_8">
     <g id="line2d_8">
      <g>
       <use style="stroke:#000000;stroke-width:0.8;" x="1202.730204" xlink:href="#m7a05ccc38c" y="610.0416"/>
      </g>
     </g>
     <g id="text_8">
      <!-- 22 -->
      <g transform="translate(1196.367704 624.640037)scale(0.1 -0.1)">
       <use xlink:href="#DejaVuSans-50"/>
       <use x="63.623047" xlink:href="#DejaVuSans-50"/>
      </g>
     </g>
    </g>
    <g id="text_9">
     <!-- Poverty Level -->
     <defs>
      <path d="M 19.671875 64.796875 
L 19.671875 37.40625 
L 32.078125 37.40625 
Q 38.96875 37.40625 42.71875 40.96875 
Q 46.484375 44.53125 46.484375 51.125 
Q 46.484375 57.671875 42.71875 61.234375 
Q 38.96875 64.796875 32.078125 64.796875 
z
M 9.8125 72.90625 
L 32.078125 72.90625 
Q 44.34375 72.90625 50.609375 67.359375 
Q 56.890625 61.8125 56.890625 51.125 
Q 56.890625 40.328125 50.609375 34.8125 
Q 44.34375 29.296875 32.078125 29.296875 
L 19.671875 29.296875 
L 19.671875 0 
L 9.8125 0 
z
" id="DejaVuSans-80"/>
      <path d="M 30.609375 48.390625 
Q 23.390625 48.390625 19.1875 42.75 
Q 14.984375 37.109375 14.984375 27.296875 
Q 14.984375 17.484375 19.15625 11.84375 
Q 23.34375 6.203125 30.609375 6.203125 
Q 37.796875 6.203125 41.984375 11.859375 
Q 46.1875 17.53125 46.1875 27.296875 
Q 46.1875 37.015625 41.984375 42.703125 
Q 37.796875 48.390625 30.609375 48.390625 
z
M 30.609375 56 
Q 42.328125 56 49.015625 48.375 
Q 55.71875 40.765625 55.71875 27.296875 
Q 55.71875 13.875 49.015625 6.21875 
Q 42.328125 -1.421875 30.609375 -1.421875 
Q 18.84375 -1.421875 12.171875 6.21875 
Q 5.515625 13.875 5.515625 27.296875 
Q 5.515625 40.765625 12.171875 48.375 
Q 18.84375 56 30.609375 56 
z
" id="DejaVuSans-111"/>
      <path d="M 2.984375 54.6875 
L 12.5 54.6875 
L 29.59375 8.796875 
L 46.6875 54.6875 
L 56.203125 54.6875 
L 35.6875 0 
L 23.484375 0 
z
" id="DejaVuSans-118"/>
      <path d="M 56.203125 29.59375 
L 56.203125 25.203125 
L 14.890625 25.203125 
Q 15.484375 15.921875 20.484375 11.0625 
Q 25.484375 6.203125 34.421875 6.203125 
Q 39.59375 6.203125 44.453125 7.46875 
Q 49.3125 8.734375 54.109375 11.28125 
L 54.109375 2.78125 
Q 49.265625 0.734375 44.1875 -0.34375 
Q 39.109375 -1.421875 33.890625 -1.421875 
Q 20.796875 -1.421875 13.15625 6.1875 
Q 5.515625 13.8125 5.515625 26.8125 
Q 5.515625 40.234375 12.765625 48.109375 
Q 20.015625 56 32.328125 56 
Q 43.359375 56 49.78125 48.890625 
Q 56.203125 41.796875 56.203125 29.59375 
z
M 47.21875 32.234375 
Q 47.125 39.59375 43.09375 43.984375 
Q 39.0625 48.390625 32.421875 48.390625 
Q 24.90625 48.390625 20.390625 44.140625 
Q 15.875 39.890625 15.1875 32.171875 
z
" id="DejaVuSans-101"/>
      <path d="M 41.109375 46.296875 
Q 39.59375 47.171875 37.8125 47.578125 
Q 36.03125 48 33.890625 48 
Q 26.265625 48 22.1875 43.046875 
Q 18.109375 38.09375 18.109375 28.8125 
L 18.109375 0 
L 9.078125 0 
L 9.078125 54.6875 
L 18.109375 54.6875 
L 18.109375 46.1875 
Q 20.953125 51.171875 25.484375 53.578125 
Q 30.03125 56 36.53125 56 
Q 37.453125 56 38.578125 55.875 
Q 39.703125 55.765625 41.0625 55.515625 
z
" id="DejaVuSans-114"/>
      <path d="M 18.3125 70.21875 
L 18.3125 54.6875 
L 36.8125 54.6875 
L 36.8125 47.703125 
L 18.3125 47.703125 
L 18.3125 18.015625 
Q 18.3125 11.328125 20.140625 9.421875 
Q 21.96875 7.515625 27.59375 7.515625 
L 36.8125 7.515625 
L 36.8125 0 
L 27.59375 0 
Q 17.1875 0 13.234375 3.875 
Q 9.28125 7.765625 9.28125 18.015625 
L 9.28125 47.703125 
L 2.6875 47.703125 
L 2.6875 54.6875 
L 9.28125 54.6875 
L 9.28125 70.21875 
z
" id="DejaVuSans-116"/>
      <path d="M 32.171875 -5.078125 
Q 28.375 -14.84375 24.75 -17.8125 
Q 21.140625 -20.796875 15.09375 -20.796875 
L 7.90625 -20.796875 
L 7.90625 -13.28125 
L 13.1875 -13.28125 
Q 16.890625 -13.28125 18.9375 -11.515625 
Q 21 -9.765625 23.484375 -3.21875 
L 25.09375 0.875 
L 2.984375 54.6875 
L 12.5 54.6875 
L 29.59375 11.921875 
L 46.6875 54.6875 
L 56.203125 54.6875 
z
" id="DejaVuSans-121"/>
      <path id="DejaVuSans-32"/>
      <path d="M 9.8125 72.90625 
L 19.671875 72.90625 
L 19.671875 8.296875 
L 55.171875 8.296875 
L 55.171875 0 
L 9.8125 0 
z
" id="DejaVuSans-76"/>
      <path d="M 9.421875 75.984375 
L 18.40625 75.984375 
L 18.40625 0 
L 9.421875 0 
z
" id="DejaVuSans-108"/>
     </defs>
     <g transform="translate(674.521406 638.318162)scale(0.1 -0.1)">
      <use xlink:href="#DejaVuSans-80"/>
      <use x="60.255859" xlink:href="#DejaVuSans-111"/>
      <use x="121.4375" xlink:href="#DejaVuSans-118"/>
      <use x="180.617188" xlink:href="#DejaVuSans-101"/>
      <use x="242.140625" xlink:href="#DejaVuSans-114"/>
      <use x="283.253906" xlink:href="#DejaVuSans-116"/>
      <use x="322.462891" xlink:href="#DejaVuSans-121"/>
      <use x="381.642578" xlink:href="#DejaVuSans-32"/>
      <use x="413.429688" xlink:href="#DejaVuSans-76"/>
      <use x="469.126953" xlink:href="#DejaVuSans-101"/>
      <use x="530.650391" xlink:href="#DejaVuSans-118"/>
      <use x="589.830078" xlink:href="#DejaVuSans-101"/>
      <use x="651.353516" xlink:href="#DejaVuSans-108"/>
     </g>
    </g>
   </g>
   <g id="matplotlib.axis_2">
    <g id="ytick_1">
     <g id="line2d_9">
      <defs>
       <path d="M 0 0 
L -3.5 0 
" id="mfee1ed734d" style="stroke:#000000;stroke-width:0.8;"/>
      </defs>
      <g>
       <use style="stroke:#000000;stroke-width:0.8;" x="172.8" xlink:href="#mfee1ed734d" y="585.806466"/>
      </g>
     </g>
     <g id="text_10">
      <!-- −5 -->
      <defs>
       <path d="M 10.59375 35.5 
L 73.1875 35.5 
L 73.1875 27.203125 
L 10.59375 27.203125 
z
" id="DejaVuSans-8722"/>
       <path d="M 10.796875 72.90625 
L 49.515625 72.90625 
L 49.515625 64.59375 
L 19.828125 64.59375 
L 19.828125 46.734375 
Q 21.96875 47.46875 24.109375 47.828125 
Q 26.265625 48.1875 28.421875 48.1875 
Q 40.625 48.1875 47.75 41.5 
Q 54.890625 34.8125 54.890625 23.390625 
Q 54.890625 11.625 47.5625 5.09375 
Q 40.234375 -1.421875 26.90625 -1.421875 
Q 22.3125 -1.421875 17.546875 -0.640625 
Q 12.796875 0.140625 7.71875 1.703125 
L 7.71875 11.625 
Q 12.109375 9.234375 16.796875 8.0625 
Q 21.484375 6.890625 26.703125 6.890625 
Q 35.15625 6.890625 40.078125 11.328125 
Q 45.015625 15.765625 45.015625 23.390625 
Q 45.015625 31 40.078125 35.4375 
Q 35.15625 39.890625 26.703125 39.890625 
Q 22.75 39.890625 18.8125 39.015625 
Q 14.890625 38.140625 10.796875 36.28125 
z
" id="DejaVuSans-53"/>
      </defs>
      <g transform="translate(151.057812 589.605685)scale(0.1 -0.1)">
       <use xlink:href="#DejaVuSans-8722"/>
       <use x="83.789062" xlink:href="#DejaVuSans-53"/>
      </g>
     </g>
    </g>
    <g id="ytick_2">
     <g id="line2d_10">
      <g>
       <use style="stroke:#000000;stroke-width:0.8;" x="172.8" xlink:href="#mfee1ed734d" y="503.689468"/>
      </g>
     </g>
     <g id="text_11">
      <!-- 0 -->
      <g transform="translate(159.4375 507.488687)scale(0.1 -0.1)">
       <use xlink:href="#DejaVuSans-48"/>
      </g>
     </g>
    </g>
    <g id="ytick_3">
     <g id="line2d_11">
      <g>
       <use style="stroke:#000000;stroke-width:0.8;" x="172.8" xlink:href="#mfee1ed734d" y="421.572471"/>
      </g>
     </g>
     <g id="text_12">
      <!-- 5 -->
      <g transform="translate(159.4375 425.371689)scale(0.1 -0.1)">
       <use xlink:href="#DejaVuSans-53"/>
      </g>
     </g>
    </g>
    <g id="ytick_4">
     <g id="line2d_12">
      <g>
       <use style="stroke:#000000;stroke-width:0.8;" x="172.8" xlink:href="#mfee1ed734d" y="339.455473"/>
      </g>
     </g>
     <g id="text_13">
      <!-- 10 -->
      <g transform="translate(153.075 343.254692)scale(0.1 -0.1)">
       <use xlink:href="#DejaVuSans-49"/>
       <use x="63.623047" xlink:href="#DejaVuSans-48"/>
      </g>
     </g>
    </g>
    <g id="ytick_5">
     <g id="line2d_13">
      <g>
       <use style="stroke:#000000;stroke-width:0.8;" x="172.8" xlink:href="#mfee1ed734d" y="257.338476"/>
      </g>
     </g>
     <g id="text_14">
      <!-- 15 -->
      <g transform="translate(153.075 261.137694)scale(0.1 -0.1)">
       <use xlink:href="#DejaVuSans-49"/>
       <use x="63.623047" xlink:href="#DejaVuSans-53"/>
      </g>
     </g>
    </g>
    <g id="ytick_6">
     <g id="line2d_14">
      <g>
       <use style="stroke:#000000;stroke-width:0.8;" x="172.8" xlink:href="#mfee1ed734d" y="175.221478"/>
      </g>
     </g>
     <g id="text_15">
      <!-- 20 -->
      <g transform="translate(153.075 179.020697)scale(0.1 -0.1)">
       <use xlink:href="#DejaVuSans-50"/>
       <use x="63.623047" xlink:href="#DejaVuSans-48"/>
      </g>
     </g>
    </g>
    <g id="ytick_7">
     <g id="line2d_15">
      <g>
       <use style="stroke:#000000;stroke-width:0.8;" x="172.8" xlink:href="#mfee1ed734d" y="93.10448"/>
      </g>
     </g>
     <g id="text_16">
      <!-- 25 -->
      <g transform="translate(153.075 96.903699)scale(0.1 -0.1)">
       <use xlink:href="#DejaVuSans-50"/>
       <use x="63.623047" xlink:href="#DejaVuSans-53"/>
      </g>
     </g>
    </g>
    <g id="text_17">
     <!-- Murder Rate -->
     <defs>
      <path d="M 9.8125 72.90625 
L 24.515625 72.90625 
L 43.109375 23.296875 
L 61.8125 72.90625 
L 76.515625 72.90625 
L 76.515625 0 
L 66.890625 0 
L 66.890625 64.015625 
L 48.09375 14.015625 
L 38.1875 14.015625 
L 19.390625 64.015625 
L 19.390625 0 
L 9.8125 0 
z
" id="DejaVuSans-77"/>
      <path d="M 8.5 21.578125 
L 8.5 54.6875 
L 17.484375 54.6875 
L 17.484375 21.921875 
Q 17.484375 14.15625 20.5 10.265625 
Q 23.53125 6.390625 29.59375 6.390625 
Q 36.859375 6.390625 41.078125 11.03125 
Q 45.3125 15.671875 45.3125 23.6875 
L 45.3125 54.6875 
L 54.296875 54.6875 
L 54.296875 0 
L 45.3125 0 
L 45.3125 8.40625 
Q 42.046875 3.421875 37.71875 1 
Q 33.40625 -1.421875 27.6875 -1.421875 
Q 18.265625 -1.421875 13.375 4.4375 
Q 8.5 10.296875 8.5 21.578125 
z
M 31.109375 56 
z
" id="DejaVuSans-117"/>
      <path d="M 45.40625 46.390625 
L 45.40625 75.984375 
L 54.390625 75.984375 
L 54.390625 0 
L 45.40625 0 
L 45.40625 8.203125 
Q 42.578125 3.328125 38.25 0.953125 
Q 33.9375 -1.421875 27.875 -1.421875 
Q 17.96875 -1.421875 11.734375 6.484375 
Q 5.515625 14.40625 5.515625 27.296875 
Q 5.515625 40.1875 11.734375 48.09375 
Q 17.96875 56 27.875 56 
Q 33.9375 56 38.25 53.625 
Q 42.578125 51.265625 45.40625 46.390625 
z
M 14.796875 27.296875 
Q 14.796875 17.390625 18.875 11.75 
Q 22.953125 6.109375 30.078125 6.109375 
Q 37.203125 6.109375 41.296875 11.75 
Q 45.40625 17.390625 45.40625 27.296875 
Q 45.40625 37.203125 41.296875 42.84375 
Q 37.203125 48.484375 30.078125 48.484375 
Q 22.953125 48.484375 18.875 42.84375 
Q 14.796875 37.203125 14.796875 27.296875 
z
" id="DejaVuSans-100"/>
      <path d="M 44.390625 34.1875 
Q 47.5625 33.109375 50.5625 29.59375 
Q 53.5625 26.078125 56.59375 19.921875 
L 66.609375 0 
L 56 0 
L 46.6875 18.703125 
Q 43.0625 26.03125 39.671875 28.421875 
Q 36.28125 30.8125 30.421875 30.8125 
L 19.671875 30.8125 
L 19.671875 0 
L 9.8125 0 
L 9.8125 72.90625 
L 32.078125 72.90625 
Q 44.578125 72.90625 50.734375 67.671875 
Q 56.890625 62.453125 56.890625 51.90625 
Q 56.890625 45.015625 53.6875 40.46875 
Q 50.484375 35.9375 44.390625 34.1875 
z
M 19.671875 64.796875 
L 19.671875 38.921875 
L 32.078125 38.921875 
Q 39.203125 38.921875 42.84375 42.21875 
Q 46.484375 45.515625 46.484375 51.90625 
Q 46.484375 58.296875 42.84375 61.546875 
Q 39.203125 64.796875 32.078125 64.796875 
z
" id="DejaVuSans-82"/>
      <path d="M 34.28125 27.484375 
Q 23.390625 27.484375 19.1875 25 
Q 14.984375 22.515625 14.984375 16.5 
Q 14.984375 11.71875 18.140625 8.90625 
Q 21.296875 6.109375 26.703125 6.109375 
Q 34.1875 6.109375 38.703125 11.40625 
Q 43.21875 16.703125 43.21875 25.484375 
L 43.21875 27.484375 
z
M 52.203125 31.203125 
L 52.203125 0 
L 43.21875 0 
L 43.21875 8.296875 
Q 40.140625 3.328125 35.546875 0.953125 
Q 30.953125 -1.421875 24.3125 -1.421875 
Q 15.921875 -1.421875 10.953125 3.296875 
Q 6 8.015625 6 15.921875 
Q 6 25.140625 12.171875 29.828125 
Q 18.359375 34.515625 30.609375 34.515625 
L 43.21875 34.515625 
L 43.21875 35.40625 
Q 43.21875 41.609375 39.140625 45 
Q 35.0625 48.390625 27.6875 48.390625 
Q 23 48.390625 18.546875 47.265625 
Q 14.109375 46.140625 10.015625 43.890625 
L 10.015625 52.203125 
Q 14.9375 54.109375 19.578125 55.046875 
Q 24.21875 56 28.609375 56 
Q 40.484375 56 46.34375 49.84375 
Q 52.203125 43.703125 52.203125 31.203125 
z
" id="DejaVuSans-97"/>
     </defs>
     <g transform="translate(144.978125 377.15345)rotate(-90)scale(0.1 -0.1)">
      <use xlink:href="#DejaVuSans-77"/>
      <use x="86.279297" xlink:href="#DejaVuSans-117"/>
      <use x="149.658203" xlink:href="#DejaVuSans-114"/>
      <use x="190.755859" xlink:href="#DejaVuSans-100"/>
      <use x="254.232422" xlink:href="#DejaVuSans-101"/>
      <use x="315.755859" xlink:href="#DejaVuSans-114"/>
      <use x="356.869141" xlink:href="#DejaVuSans-32"/>
      <use x="388.65625" xlink:href="#DejaVuSans-82"/>
      <use x="458.107422" xlink:href="#DejaVuSans-97"/>
      <use x="519.386719" xlink:href="#DejaVuSans-116"/>
      <use x="558.595703" xlink:href="#DejaVuSans-101"/>
     </g>
    </g>
   </g>
   <g id="LineCollection_1">
    <path clip-path="url(#p90aaf91d88)" d="M 221.498182 586.0512 
L 221.498182 372.538239 
" style="fill:none;stroke:#000000;stroke-opacity:0.7;"/>
    <path clip-path="url(#p90aaf91d88)" d="M 257.840109 581.488519 
L 257.840109 368.883352 
" style="fill:none;stroke:#000000;stroke-opacity:0.7;"/>
    <path clip-path="url(#p90aaf91d88)" d="M 265.108494 574.63769 
L 265.108494 359.932013 
" style="fill:none;stroke:#000000;stroke-opacity:0.7;"/>
    <path clip-path="url(#p90aaf91d88)" d="M 286.91365 570.599259 
L 286.91365 355.258399 
" style="fill:none;stroke:#000000;stroke-opacity:0.7;"/>
    <path clip-path="url(#p90aaf91d88)" d="M 286.91365 572.094869 
L 286.91365 359.039307 
" style="fill:none;stroke:#000000;stroke-opacity:0.7;"/>
    <path clip-path="url(#p90aaf91d88)" d="M 315.987191 575.168035 
L 315.987191 363.111031 
" style="fill:none;stroke:#000000;stroke-opacity:0.7;"/>
    <path clip-path="url(#p90aaf91d88)" d="M 352.329118 563.865374 
L 352.329118 353.44454 
" style="fill:none;stroke:#000000;stroke-opacity:0.7;"/>
    <path clip-path="url(#p90aaf91d88)" d="M 359.597503 566.002178 
L 359.597503 355.732217 
" style="fill:none;stroke:#000000;stroke-opacity:0.7;"/>
    <path clip-path="url(#p90aaf91d88)" d="M 366.865889 558.340978 
L 366.865889 344.952991 
" style="fill:none;stroke:#000000;stroke-opacity:0.7;"/>
    <path clip-path="url(#p90aaf91d88)" d="M 388.671045 556.306489 
L 388.671045 345.310792 
" style="fill:none;stroke:#000000;stroke-opacity:0.7;"/>
    <path clip-path="url(#p90aaf91d88)" d="M 403.207815 563.781528 
L 403.207815 352.400941 
" style="fill:none;stroke:#000000;stroke-opacity:0.7;"/>
    <path clip-path="url(#p90aaf91d88)" d="M 432.281357 558.844677 
L 432.281357 348.21342 
" style="fill:none;stroke:#000000;stroke-opacity:0.7;"/>
    <path clip-path="url(#p90aaf91d88)" d="M 439.549742 556.225891 
L 439.549742 346.462493 
" style="fill:none;stroke:#000000;stroke-opacity:0.7;"/>
    <path clip-path="url(#p90aaf91d88)" d="M 439.549742 546.412133 
L 439.549742 331.212795 
" style="fill:none;stroke:#000000;stroke-opacity:0.7;"/>
    <path clip-path="url(#p90aaf91d88)" d="M 454.086513 553.656021 
L 454.086513 344.250322 
" style="fill:none;stroke:#000000;stroke-opacity:0.7;"/>
    <path clip-path="url(#p90aaf91d88)" d="M 461.354898 553.952157 
L 461.354898 343.981569 
" style="fill:none;stroke:#000000;stroke-opacity:0.7;"/>
    <path clip-path="url(#p90aaf91d88)" d="M 497.696825 547.684125 
L 497.696825 338.514356 
" style="fill:none;stroke:#000000;stroke-opacity:0.7;"/>
    <path clip-path="url(#p90aaf91d88)" d="M 497.696825 548.857997 
L 497.696825 339.099322 
" style="fill:none;stroke:#000000;stroke-opacity:0.7;"/>
    <path clip-path="url(#p90aaf91d88)" d="M 497.696825 547.400401 
L 497.696825 338.35837 
" style="fill:none;stroke:#000000;stroke-opacity:0.7;"/>
    <path clip-path="url(#p90aaf91d88)" d="M 504.96521 536.630854 
L 504.96521 321.893295 
" style="fill:none;stroke:#000000;stroke-opacity:0.7;"/>
    <path clip-path="url(#p90aaf91d88)" d="M 504.96521 546.841336 
L 504.96521 337.625689 
" style="fill:none;stroke:#000000;stroke-opacity:0.7;"/>
    <path clip-path="url(#p90aaf91d88)" d="M 512.233596 541.164996 
L 512.233596 333.216088 
" style="fill:none;stroke:#000000;stroke-opacity:0.7;"/>
    <path clip-path="url(#p90aaf91d88)" d="M 541.307137 541.222548 
L 541.307137 332.38865 
" style="fill:none;stroke:#000000;stroke-opacity:0.7;"/>
    <path clip-path="url(#p90aaf91d88)" d="M 570.380678 530.950088 
L 570.380678 322.983705 
" style="fill:none;stroke:#000000;stroke-opacity:0.7;"/>
    <path clip-path="url(#p90aaf91d88)" d="M 577.649064 538.349926 
L 577.649064 328.362834 
" style="fill:none;stroke:#000000;stroke-opacity:0.7;"/>
    <path clip-path="url(#p90aaf91d88)" d="M 635.796147 519.946343 
L 635.796147 310.929283 
" style="fill:none;stroke:#000000;stroke-opacity:0.7;"/>
    <path clip-path="url(#p90aaf91d88)" d="M 635.796147 532.806385 
L 635.796147 320.934149 
" style="fill:none;stroke:#000000;stroke-opacity:0.7;"/>
    <path clip-path="url(#p90aaf91d88)" d="M 635.796147 517.144386 
L 635.796147 295.703141 
" style="fill:none;stroke:#000000;stroke-opacity:0.7;"/>
    <path clip-path="url(#p90aaf91d88)" d="M 643.064532 529.362683 
L 643.064532 319.128717 
" style="fill:none;stroke:#000000;stroke-opacity:0.7;"/>
    <path clip-path="url(#p90aaf91d88)" d="M 643.064532 527.208799 
L 643.064532 318.204633 
" style="fill:none;stroke:#000000;stroke-opacity:0.7;"/>
    <path clip-path="url(#p90aaf91d88)" d="M 650.332917 521.700533 
L 650.332917 314.066668 
" style="fill:none;stroke:#000000;stroke-opacity:0.7;"/>
    <path clip-path="url(#p90aaf91d88)" d="M 664.869688 520.484982 
L 664.869688 312.698728 
" style="fill:none;stroke:#000000;stroke-opacity:0.7;"/>
    <path clip-path="url(#p90aaf91d88)" d="M 686.674844 514.699672 
L 686.674844 306.694024 
" style="fill:none;stroke:#000000;stroke-opacity:0.7;"/>
    <path clip-path="url(#p90aaf91d88)" d="M 701.211615 529.711327 
L 701.211615 312.403494 
" style="fill:none;stroke:#000000;stroke-opacity:0.7;"/>
    <path clip-path="url(#p90aaf91d88)" d="M 708.48 517.772578 
L 708.48 308.540075 
" style="fill:none;stroke:#000000;stroke-opacity:0.7;"/>
    <path clip-path="url(#p90aaf91d88)" d="M 781.163853 504.533567 
L 781.163853 295.670336 
" style="fill:none;stroke:#000000;stroke-opacity:0.7;"/>
    <path clip-path="url(#p90aaf91d88)" d="M 781.163853 511.180418 
L 781.163853 299.136809 
" style="fill:none;stroke:#000000;stroke-opacity:0.7;"/>
    <path clip-path="url(#p90aaf91d88)" d="M 788.432239 500.858418 
L 788.432239 291.897802 
" style="fill:none;stroke:#000000;stroke-opacity:0.7;"/>
    <path clip-path="url(#p90aaf91d88)" d="M 802.969009 498.999496 
L 802.969009 289.854104 
" style="fill:none;stroke:#000000;stroke-opacity:0.7;"/>
    <path clip-path="url(#p90aaf91d88)" d="M 802.969009 498.422265 
L 802.969009 289.112205 
" style="fill:none;stroke:#000000;stroke-opacity:0.7;"/>
    <path clip-path="url(#p90aaf91d88)" d="M 846.579322 492.881895 
L 846.579322 282.944712 
" style="fill:none;stroke:#000000;stroke-opacity:0.7;"/>
    <path clip-path="url(#p90aaf91d88)" d="M 846.579322 491.961734 
L 846.579322 281.666324 
" style="fill:none;stroke:#000000;stroke-opacity:0.7;"/>
    <path clip-path="url(#p90aaf91d88)" d="M 853.847707 487.408323 
L 853.847707 270.417568 
" style="fill:none;stroke:#000000;stroke-opacity:0.7;"/>
    <path clip-path="url(#p90aaf91d88)" d="M 861.116092 488.832928 
L 861.116092 277.374832 
" style="fill:none;stroke:#000000;stroke-opacity:0.7;"/>
    <path clip-path="url(#p90aaf91d88)" d="M 875.652863 486.983265 
L 875.652863 275.321874 
" style="fill:none;stroke:#000000;stroke-opacity:0.7;"/>
    <path clip-path="url(#p90aaf91d88)" d="M 890.189634 486.471674 
L 890.189634 275.448522 
" style="fill:none;stroke:#000000;stroke-opacity:0.7;"/>
    <path clip-path="url(#p90aaf91d88)" d="M 911.99479 484.04128 
L 911.99479 272.684549 
" style="fill:none;stroke:#000000;stroke-opacity:0.7;"/>
    <path clip-path="url(#p90aaf91d88)" d="M 941.068331 493.188219 
L 941.068331 275.519307 
" style="fill:none;stroke:#000000;stroke-opacity:0.7;"/>
    <path clip-path="url(#p90aaf91d88)" d="M 955.605102 477.227841 
L 955.605102 264.272447 
" style="fill:none;stroke:#000000;stroke-opacity:0.7;"/>
    <path clip-path="url(#p90aaf91d88)" d="M 970.141872 476.926319 
L 970.141872 264.189026 
" style="fill:none;stroke:#000000;stroke-opacity:0.7;"/>
    <path clip-path="url(#p90aaf91d88)" d="M 1195.461818 449.702416 
L 1195.461818 228.943611 
" style="fill:none;stroke:#000000;stroke-opacity:0.7;"/>
   </g>
   <g id="line2d_16">
    <defs>
     <path d="M 0 3 
C 0.795609 3 1.55874 2.683901 2.12132 2.12132 
C 2.683901 1.55874 3 0.795609 3 0 
C 3 -0.795609 2.683901 -1.55874 2.12132 -2.12132 
C 1.55874 -2.683901 0.795609 -3 0 -3 
C -0.795609 -3 -1.55874 -2.683901 -2.12132 -2.12132 
C -2.683901 -1.55874 -3 -0.795609 -3 0 
C -3 0.795609 -2.683901 1.55874 -2.12132 2.12132 
C -1.55874 2.683901 -0.795609 3 0 3 
z
" id="md9e8b8a158" style="stroke:#0000ff;"/>
    </defs>
    <g clip-path="url(#p90aaf91d88)">
     <use style="fill:#0000ff;stroke:#0000ff;" x="221.498182" xlink:href="#md9e8b8a158" y="488.908409"/>
     <use style="fill:#0000ff;stroke:#0000ff;" x="257.840109" xlink:href="#md9e8b8a158" y="451.13459"/>
     <use style="fill:#0000ff;stroke:#0000ff;" x="265.108494" xlink:href="#md9e8b8a158" y="377.229292"/>
     <use style="fill:#0000ff;stroke:#0000ff;" x="286.91365" xlink:href="#md9e8b8a158" y="442.92289"/>
     <use style="fill:#0000ff;stroke:#0000ff;" x="286.91365" xlink:href="#md9e8b8a158" y="454.41927"/>
     <use style="fill:#0000ff;stroke:#0000ff;" x="315.987191" xlink:href="#md9e8b8a158" y="470.842669"/>
     <use style="fill:#0000ff;stroke:#0000ff;" x="352.329118" xlink:href="#md9e8b8a158" y="459.34629"/>
     <use style="fill:#0000ff;stroke:#0000ff;" x="359.597503" xlink:href="#md9e8b8a158" y="474.127349"/>
     <use style="fill:#0000ff;stroke:#0000ff;" x="366.865889" xlink:href="#md9e8b8a158" y="426.499491"/>
     <use style="fill:#0000ff;stroke:#0000ff;" x="388.671045" xlink:href="#md9e8b8a158" y="428.141831"/>
     <use style="fill:#0000ff;stroke:#0000ff;" x="403.207815" xlink:href="#md9e8b8a158" y="479.054369"/>
     <use style="fill:#0000ff;stroke:#0000ff;" x="432.281357" xlink:href="#md9e8b8a158" y="482.339049"/>
     <use style="fill:#0000ff;stroke:#0000ff;" x="439.549742" xlink:href="#md9e8b8a158" y="480.696709"/>
     <use style="fill:#0000ff;stroke:#0000ff;" x="439.549742" xlink:href="#md9e8b8a158" y="454.41927"/>
     <use style="fill:#0000ff;stroke:#0000ff;" x="454.086513" xlink:href="#md9e8b8a158" y="470.842669"/>
     <use style="fill:#0000ff;stroke:#0000ff;" x="461.354898" xlink:href="#md9e8b8a158" y="482.339049"/>
     <use style="fill:#0000ff;stroke:#0000ff;" x="497.696825" xlink:href="#md9e8b8a158" y="462.630969"/>
     <use style="fill:#0000ff;stroke:#0000ff;" x="497.696825" xlink:href="#md9e8b8a158" y="470.842669"/>
     <use style="fill:#0000ff;stroke:#0000ff;" x="497.696825" xlink:href="#md9e8b8a158" y="457.70395"/>
     <use style="fill:#0000ff;stroke:#0000ff;" x="504.96521" xlink:href="#md9e8b8a158" y="406.791411"/>
     <use style="fill:#0000ff;stroke:#0000ff;" x="504.96521" xlink:href="#md9e8b8a158" y="460.98863"/>
     <use style="fill:#0000ff;stroke:#0000ff;" x="512.233596" xlink:href="#md9e8b8a158" y="415.003111"/>
     <use style="fill:#0000ff;stroke:#0000ff;" x="541.307137" xlink:href="#md9e8b8a158" y="451.13459"/>
     <use style="fill:#0000ff;stroke:#0000ff;" x="570.380678" xlink:href="#md9e8b8a158" y="365.732912"/>
     <use style="fill:#0000ff;stroke:#0000ff;" x="577.649064" xlink:href="#md9e8b8a158" y="426.499491"/>
     <use style="fill:#0000ff;stroke:#0000ff;" x="635.796147" xlink:href="#md9e8b8a158" y="437.99587"/>
     <use style="fill:#0000ff;stroke:#0000ff;" x="635.796147" xlink:href="#md9e8b8a158" y="444.56523"/>
     <use style="fill:#0000ff;stroke:#0000ff;" x="635.796147" xlink:href="#md9e8b8a158" y="415.003111"/>
     <use style="fill:#0000ff;stroke:#0000ff;" x="643.064532" xlink:href="#md9e8b8a158" y="465.915649"/>
     <use style="fill:#0000ff;stroke:#0000ff;" x="643.064532" xlink:href="#md9e8b8a158" y="479.054369"/>
     <use style="fill:#0000ff;stroke:#0000ff;" x="650.332917" xlink:href="#md9e8b8a158" y="416.645451"/>
     <use style="fill:#0000ff;stroke:#0000ff;" x="664.869688" xlink:href="#md9e8b8a158" y="395.295031"/>
     <use style="fill:#0000ff;stroke:#0000ff;" x="686.674844" xlink:href="#md9e8b8a158" y="413.360771"/>
     <use style="fill:#0000ff;stroke:#0000ff;" x="701.211615" xlink:href="#md9e8b8a158" y="451.13459"/>
     <use style="fill:#0000ff;stroke:#0000ff;" x="708.48" xlink:href="#md9e8b8a158" y="421.572471"/>
     <use style="fill:#0000ff;stroke:#0000ff;" x="781.163853" xlink:href="#md9e8b8a158" y="396.937371"/>
     <use style="fill:#0000ff;stroke:#0000ff;" x="781.163853" xlink:href="#md9e8b8a158" y="400.222051"/>
     <use style="fill:#0000ff;stroke:#0000ff;" x="788.432239" xlink:href="#md9e8b8a158" y="415.003111"/>
     <use style="fill:#0000ff;stroke:#0000ff;" x="802.969009" xlink:href="#md9e8b8a158" y="413.360771"/>
     <use style="fill:#0000ff;stroke:#0000ff;" x="802.969009" xlink:href="#md9e8b8a158" y="405.149071"/>
     <use style="fill:#0000ff;stroke:#0000ff;" x="846.579322" xlink:href="#md9e8b8a158" y="393.652692"/>
     <use style="fill:#0000ff;stroke:#0000ff;" x="846.579322" xlink:href="#md9e8b8a158" y="382.156312"/>
     <use style="fill:#0000ff;stroke:#0000ff;" x="853.847707" xlink:href="#md9e8b8a158" y="415.003111"/>
     <use style="fill:#0000ff;stroke:#0000ff;" x="861.116092" xlink:href="#md9e8b8a158" y="301.681654"/>
     <use style="fill:#0000ff;stroke:#0000ff;" x="875.652863" xlink:href="#md9e8b8a158" y="387.083332"/>
     <use style="fill:#0000ff;stroke:#0000ff;" x="890.189634" xlink:href="#md9e8b8a158" y="423.214811"/>
     <use style="fill:#0000ff;stroke:#0000ff;" x="911.99479" xlink:href="#md9e8b8a158" y="339.455473"/>
     <use style="fill:#0000ff;stroke:#0000ff;" x="941.068331" xlink:href="#md9e8b8a158" y="106.2432"/>
     <use style="fill:#0000ff;stroke:#0000ff;" x="955.605102" xlink:href="#md9e8b8a158" y="433.06885"/>
     <use style="fill:#0000ff;stroke:#0000ff;" x="970.141872" xlink:href="#md9e8b8a158" y="400.222051"/>
     <use style="fill:#0000ff;stroke:#0000ff;" x="1195.461818" xlink:href="#md9e8b8a158" y="390.368012"/>
    </g>
   </g>
   <g id="line2d_17">
    <defs>
     <path d="M -0 4.242641 
L 4.242641 0 
L 0 -4.242641 
L -4.242641 -0 
z
" id="m80db920c4a" style="stroke:#ff0000;stroke-linejoin:miter;"/>
    </defs>
    <g clip-path="url(#p90aaf91d88)">
     <use style="fill:#ff0000;stroke:#ff0000;stroke-linejoin:miter;" x="221.498182" xlink:href="#m80db920c4a" y="479.29472"/>
     <use style="fill:#ff0000;stroke:#ff0000;stroke-linejoin:miter;" x="257.840109" xlink:href="#m80db920c4a" y="475.185936"/>
     <use style="fill:#ff0000;stroke:#ff0000;stroke-linejoin:miter;" x="265.108494" xlink:href="#m80db920c4a" y="467.284852"/>
     <use style="fill:#ff0000;stroke:#ff0000;stroke-linejoin:miter;" x="286.91365" xlink:href="#m80db920c4a" y="462.928829"/>
     <use style="fill:#ff0000;stroke:#ff0000;stroke-linejoin:miter;" x="286.91365" xlink:href="#m80db920c4a" y="465.567088"/>
     <use style="fill:#ff0000;stroke:#ff0000;stroke-linejoin:miter;" x="315.987191" xlink:href="#m80db920c4a" y="469.139533"/>
     <use style="fill:#ff0000;stroke:#ff0000;stroke-linejoin:miter;" x="352.329118" xlink:href="#m80db920c4a" y="458.654957"/>
     <use style="fill:#ff0000;stroke:#ff0000;stroke-linejoin:miter;" x="359.597503" xlink:href="#m80db920c4a" y="460.867198"/>
     <use style="fill:#ff0000;stroke:#ff0000;stroke-linejoin:miter;" x="366.865889" xlink:href="#m80db920c4a" y="451.646985"/>
     <use style="fill:#ff0000;stroke:#ff0000;stroke-linejoin:miter;" x="388.671045" xlink:href="#m80db920c4a" y="450.80864"/>
     <use style="fill:#ff0000;stroke:#ff0000;stroke-linejoin:miter;" x="403.207815" xlink:href="#m80db920c4a" y="458.091234"/>
     <use style="fill:#ff0000;stroke:#ff0000;stroke-linejoin:miter;" x="432.281357" xlink:href="#m80db920c4a" y="453.529049"/>
     <use style="fill:#ff0000;stroke:#ff0000;stroke-linejoin:miter;" x="439.549742" xlink:href="#m80db920c4a" y="451.344192"/>
     <use style="fill:#ff0000;stroke:#ff0000;stroke-linejoin:miter;" x="439.549742" xlink:href="#m80db920c4a" y="438.812464"/>
     <use style="fill:#ff0000;stroke:#ff0000;stroke-linejoin:miter;" x="454.086513" xlink:href="#m80db920c4a" y="448.953172"/>
     <use style="fill:#ff0000;stroke:#ff0000;stroke-linejoin:miter;" x="461.354898" xlink:href="#m80db920c4a" y="448.966863"/>
     <use style="fill:#ff0000;stroke:#ff0000;stroke-linejoin:miter;" x="497.696825" xlink:href="#m80db920c4a" y="443.09924"/>
     <use style="fill:#ff0000;stroke:#ff0000;stroke-linejoin:miter;" x="497.696825" xlink:href="#m80db920c4a" y="443.97866"/>
     <use style="fill:#ff0000;stroke:#ff0000;stroke-linejoin:miter;" x="497.696825" xlink:href="#m80db920c4a" y="442.879385"/>
     <use style="fill:#ff0000;stroke:#ff0000;stroke-linejoin:miter;" x="504.96521" xlink:href="#m80db920c4a" y="429.262075"/>
     <use style="fill:#ff0000;stroke:#ff0000;stroke-linejoin:miter;" x="504.96521" xlink:href="#m80db920c4a" y="442.233512"/>
     <use style="fill:#ff0000;stroke:#ff0000;stroke-linejoin:miter;" x="512.233596" xlink:href="#m80db920c4a" y="437.190542"/>
     <use style="fill:#ff0000;stroke:#ff0000;stroke-linejoin:miter;" x="541.307137" xlink:href="#m80db920c4a" y="436.805599"/>
     <use style="fill:#ff0000;stroke:#ff0000;stroke-linejoin:miter;" x="570.380678" xlink:href="#m80db920c4a" y="426.966896"/>
     <use style="fill:#ff0000;stroke:#ff0000;stroke-linejoin:miter;" x="577.649064" xlink:href="#m80db920c4a" y="433.35638"/>
     <use style="fill:#ff0000;stroke:#ff0000;stroke-linejoin:miter;" x="635.796147" xlink:href="#m80db920c4a" y="415.437813"/>
     <use style="fill:#ff0000;stroke:#ff0000;stroke-linejoin:miter;" x="635.796147" xlink:href="#m80db920c4a" y="426.870267"/>
     <use style="fill:#ff0000;stroke:#ff0000;stroke-linejoin:miter;" x="635.796147" xlink:href="#m80db920c4a" y="406.423763"/>
     <use style="fill:#ff0000;stroke:#ff0000;stroke-linejoin:miter;" x="643.064532" xlink:href="#m80db920c4a" y="424.2457"/>
     <use style="fill:#ff0000;stroke:#ff0000;stroke-linejoin:miter;" x="643.064532" xlink:href="#m80db920c4a" y="422.706716"/>
     <use style="fill:#ff0000;stroke:#ff0000;stroke-linejoin:miter;" x="650.332917" xlink:href="#m80db920c4a" y="417.8836"/>
     <use style="fill:#ff0000;stroke:#ff0000;stroke-linejoin:miter;" x="664.869688" xlink:href="#m80db920c4a" y="416.591855"/>
     <use style="fill:#ff0000;stroke:#ff0000;stroke-linejoin:miter;" x="686.674844" xlink:href="#m80db920c4a" y="410.696848"/>
     <use style="fill:#ff0000;stroke:#ff0000;stroke-linejoin:miter;" x="701.211615" xlink:href="#m80db920c4a" y="421.057411"/>
     <use style="fill:#ff0000;stroke:#ff0000;stroke-linejoin:miter;" x="708.48" xlink:href="#m80db920c4a" y="413.156327"/>
     <use style="fill:#ff0000;stroke:#ff0000;stroke-linejoin:miter;" x="781.163853" xlink:href="#m80db920c4a" y="400.101951"/>
     <use style="fill:#ff0000;stroke:#ff0000;stroke-linejoin:miter;" x="781.163853" xlink:href="#m80db920c4a" y="405.158614"/>
     <use style="fill:#ff0000;stroke:#ff0000;stroke-linejoin:miter;" x="788.432239" xlink:href="#m80db920c4a" y="396.37811"/>
     <use style="fill:#ff0000;stroke:#ff0000;stroke-linejoin:miter;" x="802.969009" xlink:href="#m80db920c4a" y="394.4268"/>
     <use style="fill:#ff0000;stroke:#ff0000;stroke-linejoin:miter;" x="802.969009" xlink:href="#m80db920c4a" y="393.767235"/>
     <use style="fill:#ff0000;stroke:#ff0000;stroke-linejoin:miter;" x="846.579322" xlink:href="#m80db920c4a" y="387.913304"/>
     <use style="fill:#ff0000;stroke:#ff0000;stroke-linejoin:miter;" x="846.579322" xlink:href="#m80db920c4a" y="386.814029"/>
     <use style="fill:#ff0000;stroke:#ff0000;stroke-linejoin:miter;" x="853.847707" xlink:href="#m80db920c4a" y="378.912945"/>
     <use style="fill:#ff0000;stroke:#ff0000;stroke-linejoin:miter;" x="861.116092" xlink:href="#m80db920c4a" y="383.10388"/>
     <use style="fill:#ff0000;stroke:#ff0000;stroke-linejoin:miter;" x="875.652863" xlink:href="#m80db920c4a" y="381.152569"/>
     <use style="fill:#ff0000;stroke:#ff0000;stroke-linejoin:miter;" x="890.189634" xlink:href="#m80db920c4a" y="380.960098"/>
     <use style="fill:#ff0000;stroke:#ff0000;stroke-linejoin:miter;" x="911.99479" xlink:href="#m80db920c4a" y="378.362914"/>
     <use style="fill:#ff0000;stroke:#ff0000;stroke-linejoin:miter;" x="941.068331" xlink:href="#m80db920c4a" y="384.353763"/>
     <use style="fill:#ff0000;stroke:#ff0000;stroke-linejoin:miter;" x="955.605102" xlink:href="#m80db920c4a" y="370.750144"/>
     <use style="fill:#ff0000;stroke:#ff0000;stroke-linejoin:miter;" x="970.141872" xlink:href="#m80db920c4a" y="370.557673"/>
     <use style="fill:#ff0000;stroke:#ff0000;stroke-linejoin:miter;" x="1195.461818" xlink:href="#m80db920c4a" y="339.323013"/>
    </g>
   </g>
   <g id="patch_3">
    <path d="M 172.8 610.0416 
L 172.8 82.2528 
" style="fill:none;stroke:#000000;stroke-linecap:square;stroke-linejoin:miter;stroke-width:0.8;"/>
   </g>
   <g id="patch_4">
    <path d="M 1244.16 610.0416 
L 1244.16 82.2528 
" style="fill:none;stroke:#000000;stroke-linecap:square;stroke-linejoin:miter;stroke-width:0.8;"/>
   </g>
   <g id="patch_5">
    <path d="M 172.8 610.0416 
L 1244.16 610.0416 
" style="fill:none;stroke:#000000;stroke-linecap:square;stroke-linejoin:miter;stroke-width:0.8;"/>
   </g>
   <g id="patch_6">
    <path d="M 172.8 82.2528 
L 1244.16 82.2528 
" style="fill:none;stroke:#000000;stroke-linecap:square;stroke-linejoin:miter;stroke-width:0.8;"/>
   </g>
   <g id="text_18">
    <!-- Linear Regression -->
    <defs>
     <path d="M 9.421875 54.6875 
L 18.40625 54.6875 
L 18.40625 0 
L 9.421875 0 
z
M 9.421875 75.984375 
L 18.40625 75.984375 
L 18.40625 64.59375 
L 9.421875 64.59375 
z
" id="DejaVuSans-105"/>
     <path d="M 54.890625 33.015625 
L 54.890625 0 
L 45.90625 0 
L 45.90625 32.71875 
Q 45.90625 40.484375 42.875 44.328125 
Q 39.84375 48.1875 33.796875 48.1875 
Q 26.515625 48.1875 22.3125 43.546875 
Q 18.109375 38.921875 18.109375 30.90625 
L 18.109375 0 
L 9.078125 0 
L 9.078125 54.6875 
L 18.109375 54.6875 
L 18.109375 46.1875 
Q 21.34375 51.125 25.703125 53.5625 
Q 30.078125 56 35.796875 56 
Q 45.21875 56 50.046875 50.171875 
Q 54.890625 44.34375 54.890625 33.015625 
z
" id="DejaVuSans-110"/>
     <path d="M 45.40625 27.984375 
Q 45.40625 37.75 41.375 43.109375 
Q 37.359375 48.484375 30.078125 48.484375 
Q 22.859375 48.484375 18.828125 43.109375 
Q 14.796875 37.75 14.796875 27.984375 
Q 14.796875 18.265625 18.828125 12.890625 
Q 22.859375 7.515625 30.078125 7.515625 
Q 37.359375 7.515625 41.375 12.890625 
Q 45.40625 18.265625 45.40625 27.984375 
z
M 54.390625 6.78125 
Q 54.390625 -7.171875 48.1875 -13.984375 
Q 42 -20.796875 29.203125 -20.796875 
Q 24.46875 -20.796875 20.265625 -20.09375 
Q 16.0625 -19.390625 12.109375 -17.921875 
L 12.109375 -9.1875 
Q 16.0625 -11.328125 19.921875 -12.34375 
Q 23.78125 -13.375 27.78125 -13.375 
Q 36.625 -13.375 41.015625 -8.765625 
Q 45.40625 -4.15625 45.40625 5.171875 
L 45.40625 9.625 
Q 42.625 4.78125 38.28125 2.390625 
Q 33.9375 0 27.875 0 
Q 17.828125 0 11.671875 7.65625 
Q 5.515625 15.328125 5.515625 27.984375 
Q 5.515625 40.671875 11.671875 48.328125 
Q 17.828125 56 27.875 56 
Q 33.9375 56 38.28125 53.609375 
Q 42.625 51.21875 45.40625 46.390625 
L 45.40625 54.6875 
L 54.390625 54.6875 
z
" id="DejaVuSans-103"/>
     <path d="M 44.28125 53.078125 
L 44.28125 44.578125 
Q 40.484375 46.53125 36.375 47.5 
Q 32.28125 48.484375 27.875 48.484375 
Q 21.1875 48.484375 17.84375 46.4375 
Q 14.5 44.390625 14.5 40.28125 
Q 14.5 37.15625 16.890625 35.375 
Q 19.28125 33.59375 26.515625 31.984375 
L 29.59375 31.296875 
Q 39.15625 29.25 43.1875 25.515625 
Q 47.21875 21.78125 47.21875 15.09375 
Q 47.21875 7.46875 41.1875 3.015625 
Q 35.15625 -1.421875 24.609375 -1.421875 
Q 20.21875 -1.421875 15.453125 -0.5625 
Q 10.6875 0.296875 5.421875 2 
L 5.421875 11.28125 
Q 10.40625 8.6875 15.234375 7.390625 
Q 20.0625 6.109375 24.8125 6.109375 
Q 31.15625 6.109375 34.5625 8.28125 
Q 37.984375 10.453125 37.984375 14.40625 
Q 37.984375 18.0625 35.515625 20.015625 
Q 33.0625 21.96875 24.703125 23.78125 
L 21.578125 24.515625 
Q 13.234375 26.265625 9.515625 29.90625 
Q 5.8125 33.546875 5.8125 39.890625 
Q 5.8125 47.609375 11.28125 51.796875 
Q 16.75 56 26.8125 56 
Q 31.78125 56 36.171875 55.265625 
Q 40.578125 54.546875 44.28125 53.078125 
z
" id="DejaVuSans-115"/>
    </defs>
    <g transform="translate(654.710625 76.2528)scale(0.12 -0.12)">
     <use xlink:href="#DejaVuSans-76"/>
     <use x="55.712891" xlink:href="#DejaVuSans-105"/>
     <use x="83.496094" xlink:href="#DejaVuSans-110"/>
     <use x="146.875" xlink:href="#DejaVuSans-101"/>
     <use x="208.398438" xlink:href="#DejaVuSans-97"/>
     <use x="269.677734" xlink:href="#DejaVuSans-114"/>
     <use x="310.791016" xlink:href="#DejaVuSans-32"/>
     <use x="342.578125" xlink:href="#DejaVuSans-82"/>
     <use x="411.998047" xlink:href="#DejaVuSans-101"/>
     <use x="473.521484" xlink:href="#DejaVuSans-103"/>
     <use x="536.998047" xlink:href="#DejaVuSans-114"/>
     <use x="578.080078" xlink:href="#DejaVuSans-101"/>
     <use x="639.603516" xlink:href="#DejaVuSans-115"/>
     <use x="691.703125" xlink:href="#DejaVuSans-115"/>
     <use x="743.802734" xlink:href="#DejaVuSans-105"/>
     <use x="771.585938" xlink:href="#DejaVuSans-111"/>
     <use x="832.767578" xlink:href="#DejaVuSans-110"/>
    </g>
   </g>
   <g id="legend_1">
    <g id="patch_7">
     <path d="M 1168.36 119.60905 
L 1237.16 119.60905 
Q 1239.16 119.60905 1239.16 117.60905 
L 1239.16 89.2528 
Q 1239.16 87.2528 1237.16 87.2528 
L 1168.36 87.2528 
Q 1166.36 87.2528 1166.36 89.2528 
L 1166.36 117.60905 
Q 1166.36 119.60905 1168.36 119.60905 
z
" style="fill:#ffffff;opacity:0.8;stroke:#cccccc;stroke-linejoin:miter;"/>
    </g>
    <g id="line2d_18"/>
    <g id="line2d_19">
     <g>
      <use style="fill:#0000ff;stroke:#0000ff;" x="1180.36" xlink:href="#md9e8b8a158" y="95.351237"/>
     </g>
    </g>
    <g id="text_19">
     <!-- murder -->
     <defs>
      <path d="M 52 44.1875 
Q 55.375 50.25 60.0625 53.125 
Q 64.75 56 71.09375 56 
Q 79.640625 56 84.28125 50.015625 
Q 88.921875 44.046875 88.921875 33.015625 
L 88.921875 0 
L 79.890625 0 
L 79.890625 32.71875 
Q 79.890625 40.578125 77.09375 44.375 
Q 74.3125 48.1875 68.609375 48.1875 
Q 61.625 48.1875 57.5625 43.546875 
Q 53.515625 38.921875 53.515625 30.90625 
L 53.515625 0 
L 44.484375 0 
L 44.484375 32.71875 
Q 44.484375 40.625 41.703125 44.40625 
Q 38.921875 48.1875 33.109375 48.1875 
Q 26.21875 48.1875 22.15625 43.53125 
Q 18.109375 38.875 18.109375 30.90625 
L 18.109375 0 
L 9.078125 0 
L 9.078125 54.6875 
L 18.109375 54.6875 
L 18.109375 46.1875 
Q 21.1875 51.21875 25.484375 53.609375 
Q 29.78125 56 35.6875 56 
Q 41.65625 56 45.828125 52.96875 
Q 50 49.953125 52 44.1875 
z
" id="DejaVuSans-109"/>
     </defs>
     <g transform="translate(1198.36 98.851237)scale(0.1 -0.1)">
      <use xlink:href="#DejaVuSans-109"/>
      <use x="97.412109" xlink:href="#DejaVuSans-117"/>
      <use x="160.791016" xlink:href="#DejaVuSans-114"/>
      <use x="201.888672" xlink:href="#DejaVuSans-100"/>
      <use x="265.365234" xlink:href="#DejaVuSans-101"/>
      <use x="326.888672" xlink:href="#DejaVuSans-114"/>
     </g>
    </g>
    <g id="line2d_20"/>
    <g id="line2d_21">
     <g>
      <use style="fill:#ff0000;stroke:#ff0000;stroke-linejoin:miter;" x="1180.36" xlink:href="#m80db920c4a" y="110.029362"/>
     </g>
    </g>
    <g id="text_20">
     <!-- fitted -->
     <defs>
      <path d="M 37.109375 75.984375 
L 37.109375 68.5 
L 28.515625 68.5 
Q 23.6875 68.5 21.796875 66.546875 
Q 19.921875 64.59375 19.921875 59.515625 
L 19.921875 54.6875 
L 34.71875 54.6875 
L 34.71875 47.703125 
L 19.921875 47.703125 
L 19.921875 0 
L 10.890625 0 
L 10.890625 47.703125 
L 2.296875 47.703125 
L 2.296875 54.6875 
L 10.890625 54.6875 
L 10.890625 58.5 
Q 10.890625 67.625 15.140625 71.796875 
Q 19.390625 75.984375 28.609375 75.984375 
z
" id="DejaVuSans-102"/>
     </defs>
     <g transform="translate(1198.36 113.529362)scale(0.1 -0.1)">
      <use xlink:href="#DejaVuSans-102"/>
      <use x="35.205078" xlink:href="#DejaVuSans-105"/>
      <use x="62.988281" xlink:href="#DejaVuSans-116"/>
      <use x="102.197266" xlink:href="#DejaVuSans-116"/>
      <use x="141.40625" xlink:href="#DejaVuSans-101"/>
      <use x="202.929688" xlink:href="#DejaVuSans-100"/>
     </g>
    </g>
   </g>
  </g>
 </g>
 <defs>
  <clipPath id="p90aaf91d88">
   <rect height="527.7888" width="1071.36" x="172.8" y="82.2528"/>
  </clipPath>
 </defs>
</svg>
